<svg xmlns="http://www.w3.org/2000/svg" width="221" height="48" viewBox="0 0 221 48" fill="none">
  <path d="M23.6498 29.8175L26.6645 37.9666H34.4839L20.4937 1.22472H14.1346L0.191467 37.9666H8.05802L11.0256 29.8175H23.6498ZM17.2906 12.4828L21.1532 22.9401H13.5222L17.2906 12.4828Z" fill="#8B25E2"/>
  <path d="M56.0948 15.262C53.5982 12.7654 50.3009 11.3994 46.768 11.3994C43.2351 11.3994 39.9378 12.7654 37.4412 15.262C34.9447 17.7586 33.5786 21.103 33.5786 24.5888C33.5786 28.1217 34.9447 31.4661 37.4412 33.9627C39.9378 36.4593 43.2351 37.8253 46.768 37.8253C48.8406 37.8253 50.8662 37.3543 52.7032 36.4122C51.9496 39.0029 49.5943 40.8871 46.768 40.8871C45.1665 40.8871 43.7062 40.3219 42.5286 39.2385L37.6768 44.3258C40.1262 46.6811 43.3765 48 46.768 48C50.3009 48 53.5982 46.5868 56.0948 44.0903C58.5914 41.6408 59.9574 38.2964 59.9574 34.7635V24.5888C59.9574 21.103 58.5914 17.7586 56.0948 15.262ZM46.768 30.7596C43.3765 30.7596 40.6444 27.9804 40.6444 24.5888C40.6444 21.2443 43.3765 18.4652 46.768 18.4652C50.1596 18.4652 52.9388 21.1972 52.9388 24.5888C52.8917 27.9804 50.1596 30.7596 46.768 30.7596Z" fill="#8B25E2"/>
  <path d="M63.7074 13.1423V37.9666H70.8203V10.787L63.7074 13.1423Z" fill="#8B25E2"/>
  <path d="M75.2076 2.35525V37.9666H82.3205V0L75.2076 2.35525Z" fill="#8B25E2"/>
  <path d="M86.7079 13.1423V37.9666H93.8207V10.787L86.7079 13.1423Z" fill="#8B25E2"/>
  <path d="M105.509 23.8822V18.3238H112.999V11.7291H105.509V3.29733L98.4437 5.65258V23.8822C98.4437 25.8606 98.8205 27.7919 99.5742 29.5819C100.328 31.3248 101.364 32.8793 102.73 34.1982C104.049 35.5172 105.604 36.6006 107.347 37.3072C109.137 38.0608 111.021 38.4377 112.999 38.4377V31.3719C108.854 31.3719 105.509 28.0275 105.509 23.8822Z" fill="#8B25E2"/>
  <path d="M122.012 35.4701L117.254 47.2934H124.791L139.111 11.7291H131.527L125.639 26.6143L119.28 11.7291H111.507L122.012 35.4701Z" fill="#8B25E2"/>
  <path d="M153.59 1.22472H140.26V37.9666H147.655V25.2012H152.884C154.815 25.2012 156.558 24.9656 158.113 24.4946C159.808 24.0235 161.221 23.2699 162.446 22.3278C163.671 21.2915 164.66 19.9725 165.32 18.4652C165.979 16.9578 166.309 15.1678 166.309 13.2365C166.309 9.70362 165.272 6.736 163.247 4.66338C161.033 2.40234 157.783 1.22472 153.59 1.22472ZM152.507 18.1825H147.655V8.24336H153.166C155.004 8.24336 156.464 8.66731 157.406 9.5152C158.301 10.316 158.772 11.5407 158.772 13.1423C158.772 14.6967 158.301 15.9215 157.453 16.7223C156.37 17.7115 154.721 18.1825 152.507 18.1825Z" fill="white"/>
  <path d="M193.228 11.4465H186.162V12.9068C184.325 11.9647 182.252 11.4465 180.133 11.4465C178.296 11.4465 176.553 11.8234 174.904 12.5299C173.302 13.1894 171.842 14.1786 170.617 15.4033C169.393 16.6281 168.403 18.0412 167.744 19.6428C167.037 21.3386 166.708 23.0815 166.708 24.8714C166.708 26.7085 167.037 28.4514 167.744 30.1001C168.403 31.7017 169.393 33.1619 170.617 34.3867C171.842 35.6114 173.302 36.6006 174.904 37.2601C176.553 37.9666 178.296 38.2964 180.133 38.2964C182.205 38.2964 184.325 37.8253 186.162 36.8832V37.9666H193.228V11.4465ZM183.336 30.3827C182.347 30.948 181.263 31.2306 180.133 31.2306C176.6 31.2306 173.773 28.4043 173.773 24.8714C173.773 21.3857 176.6 18.5123 180.133 18.5123C181.357 18.5123 182.535 18.8891 183.571 19.5486C184.561 20.208 185.361 21.103 185.879 22.1865C186.256 23.0344 186.445 23.9293 186.445 24.9186C186.445 26.002 186.162 27.1325 185.597 28.0746C185.079 29.0167 184.278 29.8175 183.336 30.3827Z" fill="white"/>
  <path d="M203.709 35.4701L198.952 47.2934H206.489L220.809 11.7291H213.225L207.337 26.6143L200.977 11.7291H193.205L203.709 35.4701Z" fill="white"/>
</svg>